:SAMPLES-PER-SECOND 24
:FULLY-SPECIFIED
:DEGREES
164
root  -4.41885 40.2445 35.6743 -22.8916 -29.0532 22.634
RightUpLeg  -6.32019 19.1798 -13.5823
RightLeg  24.7692 7.65962 3.62874
RightFoot  -4.27406 0.25583 -4.59807
RightToes  -2.08645e-008 3.77894e-005 6.81332e-007
Spine  11.9996 2.29995 2.11875
Spine1  5.42571 4.68967 -9.90847
HEad  -12.6912 15.131 -12.9191
LeftShoulder1  7.39204 -13.1574 -38.2503
LeftArm  5.77673 22.3645 -23.2098
LeftForeArm  173.062 -59.2969 -163.546
LeftHand  -0.155092 -3.34589 2.30702
RightShoulder  3.75592 6.55814 31.4359
RightArm  26.5343 -0.614865 32.2624
RightForeArm  92.2789 80.2819 82.1994
RightHand  -0.327042 9.43911 -2.9505
LeftUpLeg  -65.8302 30.8296 7.97144
LeftLeg  95.5297 -0.749676 3.71172
LeftFoot  1.76017 2.19359 -19.0579
LeftToes  1.24767e-006 1.47042e-008 1.32732e-009
165
root  -4.31689 40.5119 36.2251 -28.0408 -29.7132 27.7766
RightUpLeg  -3.31558 23.5809 -16.3765
RightLeg  24.549 4.87012 2.20819
RightFoot  -3.89724 0.463782 -7.54792
RightToes  -2.08645e-008 3.77894e-005 6.81332e-007
Spine  13.5906 2.8656 -0.676025
Spine1  5.40647 5.2972 -11.8099
HEad  -11.7301 15.6053 -12.2134
LeftShoulder1  7.55453 -13.3127 -38.7822
LeftArm  4.80955 25.9722 -23.9682
LeftForeArm  173.07 -58.2593 -164.177
LeftHand  -0.1232 -3.34625 1.88241
RightShoulder  3.65936 6.48338 30.7403
RightArm  28.9899 2.54855 31.4892
RightForeArm  91.0295 80.2364 81.5066
RightHand  -0.120163 9.29219 -1.33921
LeftUpLeg  -70.9601 29.5127 9.41132
LeftLeg  84.5232 0.0946639 6.33151
LeftFoot  2.67579 2.33081 -18.966
LeftToes  1.24767e-006 1.47042e-008 1.32732e-009
166
root  -4.15666 40.6001 36.8947 -32.262 -29.6512 31.3925
RightUpLeg  -0.608163 25.5261 -18.6678
RightLeg  25.1641 3.57792 1.61279
RightFoot  -5.31808 0.401562 -8.2862
RightToes  -2.08645e-008 3.77894e-005 6.81332e-007
Spine  14.8538 3.39279 -2.47968
Spine1  5.11627 5.43978 -12.4803
HEad  -11.369 15.5778 -11.5201
LeftShoulder1  7.67274 -13.4345 -39.1409
LeftArm  4.27153 27.3966 -24.3912
LeftForeArm  171.653 -57.9324 -164.246
LeftHand  -0.0395403 -3.47653 0.766051
RightShoulder  3.57168 6.39632 30.1678
RightArm  30.3093 4.19451 30.5998
RightForeArm  94.0733 80.3028 84.4249
RightHand  -0.00538404 9.40054 -0.443293
LeftUpLeg  -71.9721 27.5308 13.3497
LeftLeg  69.6851 1.9888 6.93736
LeftFoot  4.53918 3.04634 -21.7963
LeftToes  1.24767e-006 1.47042e-008 1.32732e-009
167
root  -4.03157 40.6015 37.4741 -35.8552 -30.1732 34.3667
RightUpLeg  0.850177 26.0582 -20.5401
RightLeg  26.4539 3.31146 1.56917
RightFoot  -6.55488 0.340189 -9.16898
RightToes  -2.08645e-008 3.77894e-005 6.81332e-007
Spine  16.0859 4.19318 -3.54331
Spine1  4.60478 5.83209 -13.3098
HEad  -11.6785 15.2141 -10.7544
LeftShoulder1  7.56995 -13.3504 -38.7742
LeftArm  4.1228 26.5261 -24.275
LeftForeArm  170.777 -57.8474 -164.221
LeftHand  0.0496468 -3.6989 -0.377725
RightShoulder  3.52304 6.36179 29.7942
RightArm  30.8923 4.63829 30.1234
RightForeArm  95.6702 80.3267 85.9936
RightHand  0.00496395 9.45111 -0.362168
LeftUpLeg  -67.9104 25.7092 20.2532
LeftLeg  49.4581 5.89977 7.77941
LeftFoot  10.7861 4.52526 -23.2028
LeftToes  1.24767e-006 1.47042e-008 1.32732e-009
168
root  -3.97867 40.5503 37.8188 -39.2688 -30.8377 37.0468
RightUpLeg  1.66642 25.9107 -21.801
RightLeg  28.0976 2.68782 1.33007
RightFoot  -7.321 0.32137 -10.5238
RightToes  -2.08645e-008 3.77894e-005 6.81332e-007
Spine  17.3656 4.76711 -4.65076
Spine1  4.68472 6.31473 -14.9545
HEad  -12.7738 15.1108 -10.0384
LeftShoulder1  7.34371 -13.1451 -38.0022
LeftArm  4.02692 24.3754 -23.5811
LeftForeArm  171.249 -57.7914 -164.294
LeftHand  0.013837 -3.5978 0.0755089
RightShoulder  3.52988 6.40086 29.7205
RightArm  30.8794 4.77446 30.4115
RightForeArm  93.374 80.2857 83.8902
RightHand  -0.117737 9.27685 -1.32596
LeftUpLeg  -57.8227 19.3391 32.4311
LeftLeg  26.3824 13.1066 7.06046
LeftFoot  12.3105 4.41593 -21.1303
LeftToes  1.24767e-006 1.47042e-008 1.32732e-009
169
root  -3.89776 40.501 38.2962 -42.9897 -31.7921 39.6632
RightUpLeg  2.8578 25.3648 -22.8747
RightLeg  29.4373 1.7755 0.856722
RightFoot  -8.38411 0.237176 -11.3179
RightToes  -2.08645e-008 3.77894e-005 6.81332e-007
Spine  18.5301 4.93788 -4.85166
Spine1  4.67521 6.5859 -17.2189
HEad  -13.9728 15.7208 -9.74711
LeftShoulder1  7.14737 -12.9544 -37.3463
LeftArm  3.786 22.642 -22.7367
LeftForeArm  171.354 -58.0578 -164.147
LeftHand  -0.0806131 -3.19505 1.32925
RightShoulder  3.53961 6.43156 29.7079
RightArm  30.9755 4.6164 31.3551
RightForeArm  90.1934 80.2161 80.5905
RightHand  -0.0975262 9.20588 -1.1713
LeftUpLeg  -48.2918 7.3895 46.152
LeftLeg  11.7585 18.4673 7.05364
LeftFoot  3.05198 1.94272 -15.0748
LeftToes  1.24767e-006 1.47042e-008 1.32732e-009
170
root  -3.74263 40.4048 38.6818 -45.9221 -32.8831 41.9094
RightUpLeg  3.03015 24.5513 -23.7465
RightLeg  30.9057 0.315217 -0.0315859
RightFoot  -9.30475 0.148915 -11.8419
RightToes  -2.08645e-008 3.77894e-005 6.81332e-007
Spine  19.581 4.75746 -5.04935
Spine1  3.86574 6.50804 -18.6389
HEad  -14.9552 16.9608 -10.3363
LeftShoulder1  7.20519 -13.0136 -37.534
LeftArm  3.13682 22.2314 -22.0114
LeftForeArm  170.654 -58.5672 -163.783
LeftHand  -0.115328 -2.94588 1.83358
RightShoulder  3.52982 6.40919 29.6893
RightArm  31.7832 3.83156 31.8668
RightForeArm  92.1523 80.2697 82.3835
RightHand  -0.0506881 9.26052 -0.798357
LeftUpLeg  -46.2032 -2.06738 54.2873
LeftLeg  12.5109 16.4578 6.00556
LeftFoot  -3.91304 0.86527 -13.2951
LeftToes  1.24767e-006 1.47042e-008 1.32732e-009
171
root  -3.55867 40.2483 39.0272 -46.9536 -33.9346 43.1548
RightUpLeg  2.15135 24.0192 -24.1816
RightLeg  32.1556 -1.28908 -1.11255
RightFoot  -10.5142 0.0183702 -12.2788
RightToes  -2.08645e-008 3.77894e-005 6.81332e-007
Spine  19.1003 4.44873 -5.44952
Spine1  3.37677 6.05315 -18.1748
HEad  -16.7532 18.3675 -11.874
LeftShoulder1  7.4897 -13.3001 -38.4456
LeftArm  2.22021 22.1417 -21.6312
LeftForeArm  170.482 -59.0655 -163.463
LeftHand  -0.120602 -2.87498 1.91859
RightShoulder  3.54769 6.40312 29.8957
RightArm  32.6811 2.3692 31.3093
RightForeArm  99.3007 80.3518 89.6055
RightHand  -0.00954299 9.3696 -0.474402
LeftUpLeg  -46.323 -0.356053 51.6449
LeftLeg  18.0982 6.29356 2.61003
LeftFoot  -0.417896 1.82052 -18.8681
LeftToes  1.24767e-006 1.47042e-008 1.32732e-009
172
root  -3.3918 40.1029 39.1953 -45.5977 -34.8673 42.282
RightUpLeg  1.45439 23.9163 -23.2047
RightLeg  31.9798 -2.66894 -2.0329
RightFoot  -11.6442 -0.111196 -12.4097
RightToes  -2.08645e-008 3.77894e-005 6.81332e-007
Spine  17.2333 3.54474 -5.08594
Spine1  4.19902 5.35577 -17.0594
HEad  -19.4921 19.6537 -13.9495
LeftShoulder1  7.60294 -13.4078 -38.8147
LeftArm  1.83267 21.5613 -22.2546
LeftForeArm  170.903 -59.7028 -163.096
LeftHand  -0.118038 -2.92444 1.87508
RightShoulder  3.62321 6.47088 30.4185
RightArm  32.6773 -0.138271 30.2257
RightForeArm  104.73 80.3152 95.0805
RightHand  0.0688079 9.47528 0.13476
LeftUpLeg  -47.266 3.59868 45.5756
LeftLeg  23.5565 7.20442 3.8104
LeftFoot  2.45555 2.58131 -21.2494
LeftToes  1.24767e-006 1.47042e-008 1.32732e-009
